<svg id="Capa_1" data-name="Capa 1" xmlns="http://www.w3.org/2000/svg" viewBox="0 0 110 110"><defs><style>.cls-1{fill:#fc5e29;}</style></defs><title>Sin título-1</title><path class="cls-1" d="M11.13,70.16l2.66,2.12c-.73,1.34-1.57,2.65-2.19,4-1.52,3.43-.41,5.55,3.28,6.28A27.89,27.89,0,0,0,27,81.91c4.61-1.15,9.13-2.7,13.7-4a1.37,1.37,0,0,0,1.12-1.81,11.66,11.66,0,0,1-.1-3.18l.63,4.27,3.29-1.24.08.19c-.39.2-.78.42-1.19.61-2.13,1-2.17,1-1.75,3.25,1.29,7,2.85,13.93,6.26,20.26a19.8,19.8,0,0,0,2.69,3.8c2.2,2.43,4.56,2.39,6.47-.27a27.38,27.38,0,0,0,3.16-5.89c2.27-5.79,3.25-11.9,4.05-18a1.42,1.42,0,0,0-.69-1.17A151.19,151.19,0,0,1,41.63,66.59c-3.8-2.43-7.46-5.1-11.18-7.66-.39-.28-.77-.58-1.27-1l-7.35,5.94-2.42-3.13,6.21-5.7c-.58-.5-1.15-1-1.71-1.49-4.76-4.2-9.34-8.59-12.7-14a23.4,23.4,0,0,1-2.63-6c-1.14-4.15,1.12-7.28,5.4-8a23.67,23.67,0,0,1,10.69.84c5.45,1.62,10.78,3.6,16.16,5.43.36.12.7.26,1.12.41.49-3.08.9-6.05,1.43-9,.9-5,2-10,4.38-14.62a24.29,24.29,0,0,1,3.85-5.25,4.83,4.83,0,0,1,4.68-1.3c-.55,1.15-.78,2.12-2.3,2.66A8.81,8.81,0,0,0,50.36,8a34.93,34.93,0,0,0-5.13,11.86c-1,3.7-1.64,7.5-2.55,11.23-.3,1.21,0,1.82,1.13,2.16a3,3,0,0,1,1.36.89l-2.78-1c-.22,1.47-.42,2.84-.62,4.21h-.2c.1-1.17.27-2.33.27-3.5a1.5,1.5,0,0,0-.64-1.19C34.05,29.91,26.78,27.56,19,27.37a19,19,0,0,0-5.46.7c-2.28.64-3,2.26-2.41,4.55.76,2.86,2.55,5.13,4.42,7.31A84.88,84.88,0,0,0,29.14,52.16c3.7-2.56,7.25-5.12,10.91-7.51a148.4,148.4,0,0,1,24.2-12.79c1.17-.48,1.33-1,1.17-2.16a87.56,87.56,0,0,0-4.05-17.6L64.49,11c2.68,5.86,4.11,12.08,5.36,18.51,2.19-.7,4.23-1.51,6.34-2,4.4-1,8.82-2,13.28-2.62a20.8,20.8,0,0,1,6.8.4c4.89,1,6.74,4.75,4.79,9.37a28.33,28.33,0,0,1-7,9.59c-3.58,3.35-7.4,6.46-11.12,9.66-.44.37-.89.72-1.42,1.14,2.35,1.91,4.63,3.71,6.86,5.57A51.93,51.93,0,0,1,98.62,71.38a25.15,25.15,0,0,1,3,6.4c.78,2.48-.52,4.84-2.78,6.16a13.25,13.25,0,0,1-7,1.49c-6.25-.05-12.22-1.64-18.13-3.51-1.2-.38-2.39-.8-3.76-1.25-.48,2.22-.91,4.39-1.43,6.54-1.22,5-2.6,10-5.29,14.48a23.13,23.13,0,0,1-4.69,5.47,4.83,4.83,0,0,1-6.58-.12,17.74,17.74,0,0,1-3.85-4.85c-2.81-5.26-4-11-5-16.86-.42-2.39-.72-4.8-1.1-7.37-.43.14-.82.26-1.2.41C34.38,81,27.94,83.57,21,84.45a26.28,26.28,0,0,1-7.67-.07c-4-.69-5.84-3.74-4.79-7.68A62.77,62.77,0,0,1,11.13,70.16ZM81,54.81A83.45,83.45,0,0,0,94.8,41.29c2-2.53,3.83-5.17,4.55-8.39.55-2.47-.45-4.24-2.95-4.61a23.63,23.63,0,0,0-6.23-.12c-6.53.79-12.62,3.13-18.68,5.57a1.1,1.1,0,0,0-.84,1.39,154,154,0,0,1,0,40,1.09,1.09,0,0,0,.85,1.39c4,1.4,8,3,12.13,4.22A31.17,31.17,0,0,0,94.7,82.32c4.24-.26,5.71-2.53,4.22-6.51,0-.13-.11-.27-.17-.4a32.41,32.41,0,0,0-6.28-9.25A85.1,85.1,0,0,0,81,55.45l-2.85,2L78,57.25l2.56-2.13L78,53l.17-.2ZM66.1,36.12a208.3,208.3,0,0,0-32.91,19,206.58,206.58,0,0,0,32.9,19A204.4,204.4,0,0,0,66.1,36.12Z"/><path class="cls-1" d="M16.36,70.6a3.81,3.81,0,0,1-3.82-3.8A3.7,3.7,0,0,1,16.32,63a3.78,3.78,0,0,1,3.83,3.76A3.84,3.84,0,0,1,16.36,70.6Z"/><path class="cls-1" d="M61.09,9.82a3.79,3.79,0,0,1-3.83-3.74,3.73,3.73,0,0,1,3.67-3.87A3.82,3.82,0,0,1,64.88,6,3.9,3.9,0,0,1,61.09,9.82Z"/><path class="cls-1" d="M64.46,55.05a9.3,9.3,0,0,1-9.26,9.44,9.36,9.36,0,1,1-.15-18.71A9.25,9.25,0,0,1,64.46,55.05Z"/></svg>