<svg id="Capa_1" data-name="Capa 1" xmlns="http://www.w3.org/2000/svg" viewBox="0 0 149 194"><defs><style>.cls-1{fill:#fc5e29;}</style></defs><title>distinciones</title><path class="cls-1" d="M7.16,145.17a3.19,3.19,0,0,1-3.26-2.72,6,6,0,0,1-.08-1.24V127.07q0-19.06,0-38.14A25.48,25.48,0,0,1,29.22,63.51h2c2.85,0,5.7,0,8.55,0a2,2,0,0,0,.7-.06.7.7,0,0,0,.08-.28,5,5,0,0,1,.27-.94c.24-.69.26-.75-.23-1.13-7.59-5.9-12-15.17-12.17-25.43A32.59,32.59,0,0,1,39.91,9.79,25.59,25.59,0,0,1,59.19,3.91,26.88,26.88,0,0,1,77.48,14.53,34.4,34.4,0,0,1,84,39.91,32,32,0,0,1,71.91,61.43a.9.9,0,0,0-.1.37c.19.52.33,1,.43,1.36,0,.12.08.25.11.36h.57c.42,0,1,0,1.69,0,1.49,0,3,0,4.49,0a63.26,63.26,0,0,1,8,.27,25.21,25.21,0,0,1,20.74,17.58l.13.42-5.62,9.74-.15-3.44A18.37,18.37,0,0,0,97.8,76.79,17.3,17.3,0,0,0,85.23,70.3c-2.44-.15-4.85-.12-7.41-.08l-2.22,0a19.11,19.11,0,0,1-8.4,20.09,6.27,6.27,0,0,1-2.36.84l-.69.15a7,7,0,0,0,0,1.53c2.23,13.3,4.11,24.3,5.92,34.63a4.26,4.26,0,0,1-1.7,4.53c-2,1.53-4,3.13-6,4.68L59,139.4c-1.95,1.52-3.2,1.52-5.14,0l-3.76-2.95c-1.94-1.51-3.87-3-5.82-4.52a4.06,4.06,0,0,1-1.62-4.28c1.94-11.16,3.94-22.86,5.95-34.78a8.68,8.68,0,0,0,0-1.72,4.47,4.47,0,0,1-3.71-1.26C38.29,84.58,35.64,78,37,70.22c-1.26,0-2.51,0-3.74,0C30.05,70.1,27,70,24,70.94A18.66,18.66,0,0,0,10.53,89q0,17.82,0,35.65V141a6.87,6.87,0,0,1-.07,1.41,3.18,3.18,0,0,1-3.15,2.79ZM34.74,65.5H29.22A23.47,23.47,0,0,0,5.83,88.93q0,19.08,0,38.14v14.18a3.89,3.89,0,0,0,0,.79,1.2,1.2,0,0,0,1.38,1.13c.51,0,1.06-.17,1.24-1.15a6.32,6.32,0,0,0,0-1V124.69q0-17.82,0-35.66A20.62,20.62,0,0,1,23.4,69a30.62,30.62,0,0,1,9.93-.85c1.53,0,3.11.08,4.62,0l.73,0L39,69a1.14,1.14,0,0,1,.12.58,6.16,6.16,0,0,1-.07.69c-1.4,7.21.93,13.13,7.11,18.11,1.11.89,1.77,1.16,3,.54l1.47-.76v1.65q0,.63,0,1.17a10.6,10.6,0,0,1-.07,2.26c-2,11.93-4,23.63-5.95,34.79a2.1,2.1,0,0,0,.87,2.35c2,1.5,3.89,3,5.83,4.54l3.76,2.94c1.22.95,1.44.95,2.68,0l3.43-2.69c2-1.56,4-3.16,6-4.71a2.27,2.27,0,0,0,.94-2.59c-1.81-10.33-3.69-21.33-5.93-34.64A11.07,11.07,0,0,1,62.16,91c0-.3,0-.6,0-.9V88l1.69,1.34.55-.12a4.72,4.72,0,0,0,1.64-.53c6.63-4.53,9.22-11.35,7.32-19.2l-.3-1.23h1.27c1.15,0,2.3,0,3.43,0,2.48,0,5-.07,7.56.08a19.28,19.28,0,0,1,14,7.2,20.34,20.34,0,0,1,4.53,9.44l2-3.38A23.19,23.19,0,0,0,86.88,65.79a62.7,62.7,0,0,0-7.76-.25c-1.5,0-3,0-4.57,0-.69,0-1.2,0-1.6,0-1.69,0-2.17-.19-2.63-1.81-.09-.33-.22-.77-.42-1.34a2.53,2.53,0,0,1,.8-2.53A30,30,0,0,0,82.05,39.65a32.38,32.38,0,0,0-6.16-23.9A24.88,24.88,0,0,0,59,5.89a23.63,23.63,0,0,0-17.79,5.44A30.63,30.63,0,0,0,30.43,35.65c.14,9.65,4.29,18.36,11.4,23.88a2.6,2.6,0,0,1,.88,3.38,4.48,4.48,0,0,0-.17.58,2.39,2.39,0,0,1-2.79,2C38.08,65.5,36.41,65.5,34.74,65.5Zm2.38,4h0Zm19.25,65.43a2.31,2.31,0,0,1-1.46-.6c-.92-.76-1.86-1.49-2.8-2.23-1.16-.9-2.35-1.83-3.49-2.8a3.1,3.1,0,0,1-1-2.61c1.62-9.81,3.32-19.77,5-29.41l.27-1.59c.43-2.53.86-2.88,3.52-2.88s3.07.36,3.51,2.93l1.78,10.44q1.74,10.2,3.5,20.4h0a2.65,2.65,0,0,1-1.08,2.84c-1.87,1.41-3.89,3-6.18,4.85A2.51,2.51,0,0,1,56.37,134.92ZM55.09,94.85A9.65,9.65,0,0,0,54.85,96l-.27,1.59c-1.65,9.63-3.36,19.59-5,29.39a1.28,1.28,0,0,0,.31.76c1.11,1,2.29,1.87,3.43,2.76.95.74,1.91,1.48,2.84,2.25.12.1.19.13.21.15s.1-.07.28-.21c2.31-1.88,4.35-3.48,6.24-4.9.33-.24.4-.36.31-.9h0q-1.77-10.2-3.5-20.4L57.94,96.07a7.42,7.42,0,0,0-.26-1.22A11.8,11.8,0,0,0,55.09,94.85ZM57,90.13h-.46c-3.17,0-4-.83-4.25-4a2.19,2.19,0,0,1,.45-1.51c.68-.79,1.38-1.56,2.12-2.38l1.53-1.69.74.82c.3.33.62.64.93,1a8,8,0,0,1,2,2.59,5.62,5.62,0,0,1-.24,3.61l-.13.45c-.22.82-1.08,1-1.84,1.08l-.4.06A2.06,2.06,0,0,1,57,90.13Zm.8-1.73h0Zm-1.25-.28h.28a1.74,1.74,0,0,0,.23,0l.51-.09.34-.06,0,0a4.68,4.68,0,0,0,.31-2.3,6.48,6.48,0,0,0-1.57-1.92l-.26-.25-.07.08c-.72.8-1.41,1.56-2.08,2.34,0,0,0,0,0,.08.14,2.11.14,2.15,2.15,2.15ZM65,86l-6.64-7.43.94-.65L61,76.82c1.21-.81,2.36-1.58,3.44-2.41s2.1-1.76,3.19-2.73c.49-.43,1-.88,1.49-1.32l1-.82.59,1.1c2.22,4.12-.11,11.19-4.89,14.82ZM61.35,79l3.87,4.32c3-2.74,4.78-7.33,4.08-10.45l-.39.34c-1.11,1-2.16,1.94-3.3,2.82s-2.31,1.66-3.55,2.49ZM47.92,85.9l-.71-.44c-4.29-2.64-6.93-9.49-5.43-14.1L42.21,70l1.12.84L44.87,72c1.16.88,2.26,1.72,3.41,2.52s2.31,1.53,3.55,2.31l1.65,1,1,.63ZM43.39,73.43a12.44,12.44,0,0,0,4.19,9.85L51.41,79l-.65-.41c-1.26-.79-2.44-1.54-3.62-2.36s-2.35-1.71-3.48-2.57Zm13,2.4a3.42,3.42,0,0,1-1.95-.65l-2.81-1.93c-2.15-1.48-4.3-3-6.43-4.47a2.34,2.34,0,0,1-.78-2.24,21.27,21.27,0,0,1,.72-2.32l.34-1,.34-1,1,.42a23.23,23.23,0,0,0,19,.06l.83-.35.44.79c1.67,3.07,1.76,3.78-.81,6-1.92,1.66-4,3.17-6,4.64l-1.81,1.33h0A3.44,3.44,0,0,1,56.4,75.83Zm-10-8.63c2.1,1.49,4.22,2.94,6.33,4.4l2.81,1.93a1.26,1.26,0,0,0,1.67,0h0l1.82-1.34c2-1.44,4-2.93,5.87-4.54.51-.44,1.29-1.11,1.32-1.39a3.7,3.7,0,0,0-.55-1.34,25.28,25.28,0,0,1-18.68,0h0A20.84,20.84,0,0,0,46.38,67,.87.87,0,0,0,46.44,67.2Zm0,0Zm-.09-.08Zm10-5.16a21.79,21.79,0,0,1-17.2-8.84h0a29.06,29.06,0,0,1-5.89-20.62,8.29,8.29,0,0,1,.13-.91c0-.13.06-.27.08-.42l.15-.86.88,0c4.89.22,8.73-2,12.49-7.22a2.11,2.11,0,0,1,1.41-.95,1.89,1.89,0,0,1,1.44.48l.13.09c4.34,3.41,8.52,3.42,12.8,0a2.13,2.13,0,0,1,1.66-.56A2.4,2.4,0,0,1,66,23.35a22.52,22.52,0,0,0,2.34,2.8c3.08,3.12,6.25,4.44,10,4.17l.91-.07.15.91a27.74,27.74,0,0,1-.58,11.38A26,26,0,0,1,68.49,58.06,21.13,21.13,0,0,1,56.34,62ZM40.72,51.93c6.74,8.68,17.94,10.57,26.62,4.49a24,24,0,0,0,9.47-14.36,26.25,26.25,0,0,0,.67-9.71c-3.89,0-7.38-1.53-10.61-4.8a25.59,25.59,0,0,1-2.54-3,1.9,1.9,0,0,0-.19-.25l-.14.09c-5,4-10.18,4-15.26,0a.3.3,0,0,1-.11-.07l0,0c-2.5,3.46-6.57,8-13.32,8.07a2.54,2.54,0,0,0,0,.29,27.14,27.14,0,0,0,5.48,19.25ZM34.3,27.82l.31-1.39c1.69-7.55,9.56-18,21.8-18H57c9.72.24,20.41,9.34,21.18,18l.09,1-1,.1a6.6,6.6,0,0,1-5.06-1.66A30.78,30.78,0,0,1,68,21.54c-1.28-1.65-3.44-3.21-6.45-1.19L60,21.41a6,6,0,0,1-7.25,0c-4.55-3-5.38-2.88-8.88,1.39-1.65,2-3.58,4-6.48,4.64a8.14,8.14,0,0,1-1.18.16l-.51.06Zm30-10.42a6.68,6.68,0,0,1,5.27,2.92,28.42,28.42,0,0,0,3.88,4.07A4.87,4.87,0,0,0,76,25.56C74.52,18.21,65.16,10.64,56.9,10.44c-10.71-.26-17.8,8.22-20,15h0c2.19-.51,3.74-1.95,5.38-3.95,4.17-5.09,6.11-5.38,11.54-1.79a4.08,4.08,0,0,0,5,0l1.58-1.07A6.94,6.94,0,0,1,64.33,17.4Z"/><path class="cls-1" d="M112.93,161.22a5.1,5.1,0,0,1-3-1c-1-.69-1.91-1.43-2.83-2.19a4.64,4.64,0,0,0-4-1c-1,.16-2.07.33-3.13.44a4.6,4.6,0,0,1-5.12-2.78,30.27,30.27,0,0,1-1.35-3.23,4.84,4.84,0,0,0-3-3.07,36,36,0,0,1-3.4-1.42,4.54,4.54,0,0,1-2.65-4.71c.09-1,.23-2.14.42-3.26a5.08,5.08,0,0,0-1.15-4.51,24.76,24.76,0,0,1-2.29-3.07,4.29,4.29,0,0,1-.06-4.76,23.76,23.76,0,0,1,2.27-3.1,5.23,5.23,0,0,0,1.21-4.76c-.18-1-.31-2-.4-3.09A4.46,4.46,0,0,1,87,111.05a37.15,37.15,0,0,1,3.48-1.49,4.82,4.82,0,0,0,3.09-3.11q.52-1.49,1.26-3.06a4.64,4.64,0,0,1,4.85-3l1.15.14,3,.4a4,4,0,0,0,3.08-.88l.68-.53c.78-.61,1.56-1.22,2.35-1.79a4.79,4.79,0,0,1,5.94,0,21.13,21.13,0,0,1,2.4,1.86,5.32,5.32,0,0,0,4.92,1.25,29.33,29.33,0,0,1,3.09-.39,4.51,4.51,0,0,1,4.72,2.8c.48,1,.93,2.12,1.33,3.22a4.7,4.7,0,0,0,3,3c.91.34,2,.75,3,1.23a4.67,4.67,0,0,1,3.06,5.34c-.1,1-.21,1.91-.36,2.7a5.12,5.12,0,0,0,1.23,4.81,19.88,19.88,0,0,1,1.71,2.16c1.59,2.28,1.6,4.13,0,6.41a22.06,22.06,0,0,1-1.82,2.32,5,5,0,0,0-1.16,4.58c.16.9.29,1.83.38,2.77a4.73,4.73,0,0,1-3,5.36,26,26,0,0,1-2.8,1.13,4.94,4.94,0,0,0-3.28,3.28,28.62,28.62,0,0,1-1.18,2.89,4.71,4.71,0,0,1-5.41,3q-.93-.1-1.86-.24c-.67-.09-1.33-.18-2-.25a3.83,3.83,0,0,0-2.83.84l-1,.75c-.71.55-1.41,1.1-2.14,1.63A5.09,5.09,0,0,1,112.93,161.22Zm-8.78-6.28a6.47,6.47,0,0,1,4.28,1.54c.87.73,1.78,1.43,2.7,2.09a2.8,2.8,0,0,0,3.62,0c.7-.5,1.38-1,2.07-1.57l1-.77a5.73,5.73,0,0,1,4.27-1.24l2,.26,1.83.24a2.82,2.82,0,0,0,3.38-1.84,26,26,0,0,0,1.09-2.69,7,7,0,0,1,4.52-4.51,23.32,23.32,0,0,0,2.59-1.05,2.78,2.78,0,0,0,1.9-3.35c-.09-.89-.21-1.77-.36-2.62a7,7,0,0,1,1.65-6.27,21.57,21.57,0,0,0,1.66-2.11c1.1-1.61,1.1-2.53,0-4.13a19.57,19.57,0,0,0-1.54-2,7.15,7.15,0,0,1-1.73-6.55,24.17,24.17,0,0,0,.34-2.5,2.75,2.75,0,0,0-1.91-3.33c-1-.46-2-.85-2.89-1.17a6.75,6.75,0,0,1-4.15-4.21c-.38-1-.8-2.07-1.26-3.06a2.55,2.55,0,0,0-2.75-1.65c-.92.08-1.91.18-2.88.36a7.21,7.21,0,0,1-6.64-1.74,21.58,21.58,0,0,0-2.19-1.69,2.81,2.81,0,0,0-3.63,0c-.78.56-1.53,1.15-2.28,1.74l-.7.54a6,6,0,0,1-4.56,1.28l-4.11-.53a2.68,2.68,0,0,0-2.86,1.81,30.09,30.09,0,0,0-1.18,2.87,6.84,6.84,0,0,1-4.29,4.33,33.15,33.15,0,0,0-3.29,1.4,2.48,2.48,0,0,0-1.42,2.71,27.7,27.7,0,0,0,.38,2.89,7.2,7.2,0,0,1-1.68,6.45A21.61,21.61,0,0,0,83,127.73a2.26,2.26,0,0,0,0,2.6,22.06,22.06,0,0,0,2.11,2.84,7,7,0,0,1,1.62,6.17c-.18,1.06-.31,2.1-.39,3.09A2.54,2.54,0,0,0,88,145.17a34.81,34.81,0,0,0,3.22,1.35,6.86,6.86,0,0,1,4.23,4.25,27,27,0,0,0,1.26,3,2.66,2.66,0,0,0,3.11,1.68c1-.11,2-.27,3-.43A9,9,0,0,1,104.15,154.94Zm8.89-.51a25.52,25.52,0,0,1-17.7-7.05,25,25,0,0,1-7.87-17.66,25.47,25.47,0,1,1,26.35,24.7Zm.23-48.92h-.59a23.45,23.45,0,0,0-23.21,24.15,23,23,0,0,0,7.25,16.26,23.46,23.46,0,0,0,39.67-17.54h0A23.39,23.39,0,0,0,113.27,105.51Z"/><path class="cls-1" d="M101.8,190.25l-6.91-12.06L81.7,182.55l11-28.74,1.19,1.88a3.9,3.9,0,0,1,.22.36c1.37,2.56,2.67,3.22,5.57,2.82l.56-.08c.63-.09,1.26-.17,1.89-.29a5.45,5.45,0,0,1,4.58,1.26c1,.78,2,1.51,3.13,2.28l1.54,1.09.62.45Zm-6-14.47,5.62,9.82,8.15-21.3-.89-.62c-1.12-.79-2.18-1.54-3.21-2.34a3.45,3.45,0,0,0-3-.88c-.66.13-1.32.22-2,.31l-.55.08c-3.19.45-5.21-.29-6.83-2.58l-8.06,21.06Z"/><path class="cls-1" d="M124.06,190.25l-10.22-26.68.63-.45c.53-.37,1-.76,1.56-1.13,1.32-1,2.56-1.89,3.9-2.73a6,6,0,0,1,3.08-.79,16.19,16.19,0,0,1,2.55.27c.41.06.82.13,1.23.18a4.28,4.28,0,0,0,4.87-2.7,5.42,5.42,0,0,1,.26-.48,1.2,1.2,0,0,1,.42-.43l1-.7.51,1.13,10.27,26.81L131,178.19Zm-7.8-25.95,8.16,21.3,5.62-9.82,10.74,3.55-8-21a6.17,6.17,0,0,1-6.18,2.57c-.44-.05-.88-.12-1.31-.19a15,15,0,0,0-2.24-.24,4,4,0,0,0-2,.48c-1.28.81-2.5,1.7-3.78,2.65Z"/><path class="cls-1" d="M110.36,143.1,98,130.39l4.9-5.26,8,7.46,14.65-13.16,5,5.54Zm-9.59-12.74,9.68,10,17.23-15.5-2.31-2.57-14.53,13.06L103,128Z"/></svg>