<svg id="Capa_1" data-name="Capa 1" xmlns="http://www.w3.org/2000/svg" viewBox="0 0 145 95"><defs><style>.cls-1{fill:#fff;}</style></defs><title>proyectos_3</title><path class="cls-1" d="M40.12,86.46a2.52,2.52,0,0,1-2-.84,2.87,2.87,0,0,1-.75-2V28.57l1.22.75L13.94,62l-.28-1H49.32a2.7,2.7,0,0,1,1.92.75,2.49,2.49,0,0,1,.8,1.88,2.45,2.45,0,0,1-.8,1.87,2.66,2.66,0,0,1-1.92.76H9.81a2.63,2.63,0,0,1-2-.9,2.84,2.84,0,0,1-.84-2,3,3,0,0,1,.66-1.88l30.21-39.5A2.37,2.37,0,0,1,39,21a4,4,0,0,1,1.18-.23,2.65,2.65,0,0,1,2,.84,2.76,2.76,0,0,1,.8,2V83.65a2.7,2.7,0,0,1-.84,2A2.85,2.85,0,0,1,40.12,86.46Z"/><path class="cls-1" d="M64.15,86.46a3,3,0,0,1-2.44-1,4,4,0,0,1-.85-2.63v-2a3.74,3.74,0,0,1,.85-2.62,3.09,3.09,0,0,1,2.44-.94h.65a3.1,3.1,0,0,1,2.44.94,3.79,3.79,0,0,1,.85,2.62v2a4,4,0,0,1-.85,2.63,3,3,0,0,1-2.44,1Z"/><path class="cls-1" d="M114.37,63.35l1-.1a1.63,1.63,0,0,0,0-3.24l-1-.1a1.63,1.63,0,0,1-.5-3.11l1-.42a1.63,1.63,0,0,0-1-3.08l-1,.22a1.62,1.62,0,0,1-1.43-2.8l.79-.7a1.63,1.63,0,0,0-1.91-2.62l-.9.53a1.63,1.63,0,0,1-2.23-2.23l.53-.91a1.63,1.63,0,0,0-2.62-1.9l-.7.79a1.63,1.63,0,0,1-2.81-1.43l.23-1a1.63,1.63,0,0,0-3.08-1l-.42,1a1.63,1.63,0,0,1-3.11-.5l-.1-1a1.63,1.63,0,0,0-3.24,0l-.1,1a1.63,1.63,0,0,1-3.11.5l-.43-1a1.63,1.63,0,0,0-3.08,1l.23,1a1.63,1.63,0,0,1-2.81,1.43l-.69-.79a1.63,1.63,0,0,0-2.63,1.9l.54.91a1.63,1.63,0,0,1-2.23,2.23l-.91-.53A1.63,1.63,0,0,0,74.69,50l.79.7a1.62,1.62,0,0,1-1.43,2.8l-1-.22a1.63,1.63,0,0,0-1,3.08l1,.42a1.62,1.62,0,0,1-.49,3.11l-1,.1a1.63,1.63,0,0,0,0,3.24l1,.1A1.62,1.62,0,0,1,73,66.46l-1,.42A1.63,1.63,0,0,0,73,70l1-.23a1.62,1.62,0,0,1,1.43,2.8l-.79.7a1.63,1.63,0,0,0,1.9,2.62l.91-.53a1.63,1.63,0,0,1,2.23,2.23l-.54.91a1.63,1.63,0,0,0,2.63,1.9l.69-.79A1.63,1.63,0,0,1,85.32,81l-.23,1a1.63,1.63,0,0,0,3.08,1l.43-1a1.63,1.63,0,0,1,3.11.5l.1,1.05a1.63,1.63,0,0,0,3.24,0l.1-1.05a1.63,1.63,0,0,1,3.11-.5l.42,1a1.63,1.63,0,0,0,3.08-1l-.23-1a1.63,1.63,0,0,1,2.81-1.43l.7.79a1.63,1.63,0,0,0,2.62-1.9l-.53-.91a1.63,1.63,0,0,1,2.23-2.23l.9.53a1.63,1.63,0,0,0,1.91-2.62l-.79-.7a1.62,1.62,0,0,1,1.43-2.8l1,.23a1.63,1.63,0,0,0,1-3.09l-1-.42A1.63,1.63,0,0,1,114.37,63.35ZM93.43,71.24A9.61,9.61,0,1,1,103,61.63,9.61,9.61,0,0,1,93.43,71.24Z"/><path class="cls-1" d="M135.65,82.74h0a2.34,2.34,0,0,1-2.34-2.34V45.83L116.37,16.2,103.78,28.79a2.35,2.35,0,0,1-3.31,0h0a2.34,2.34,0,0,1,0-3.32L117.4,8.54,138,44.59V80.4A2.35,2.35,0,0,1,135.65,82.74Z"/><path class="cls-1" d="M103.82,36.56,99.88,34a6.83,6.83,0,0,0,1.18-3.62,1.89,1.89,0,0,0-.6-1.59,1.9,1.9,0,0,0-1.69.11,6.8,6.8,0,0,0-2.83,2.55L92,28.89a11.35,11.35,0,0,1,4.9-4.3,6,6,0,0,1,8.84,5.74A11.4,11.4,0,0,1,103.82,36.56Z"/></svg>