<svg id="Capa_1" data-name="Capa 1" xmlns="http://www.w3.org/2000/svg" viewBox="0 0 145 66"><defs><style>.cls-1{fill:#fff;}</style></defs><title>proyectos_2</title><path class="cls-1" d="M131.22,52.52c-9.4,0-26.58-8.31-46.19-18L81,35.48c-25.88,5.94-59.14,10.62-70.67-.82-3.9-3.87-5.1-9.32-3.57-16.21a11.28,11.28,0,0,1,6.14-8.23c13-6.24,42.29,8.2,70.61,22.17l1.73.85c28.5-6.38,44.36-8.23,50.94-1.69,3.28,3.25,4.06,8.53,2.38,16.12a5.61,5.61,0,0,1-3.1,4A9.79,9.79,0,0,1,131.22,52.52ZM87,34.11c21.33,10.5,40.94,19.82,47.9,16.48a4.31,4.31,0,0,0,2.42-3.19c1.59-7.14.92-12-2-15C128.67,25.89,110.48,28.86,87,34.11ZM7.32,18.58l.6.14c-1.42,6.44-.34,11.51,3.24,15.06,8.8,8.73,32.84,8.9,69.51.49l2.59-.59-.35-.18C56.16,20.31,25.84,5.37,13.39,11.34c-2.88,1.38-4.67,3.8-5.47,7.38Z"/><path class="cls-1" d="M130.94,46.85c-9.75,0-26.69-6.27-45.87-13.51l-4,1.32c-25.18,8.4-57.84,16.27-70.41,6-4.25-3.47-6-8.78-5.12-15.79h0a11.28,11.28,0,0,1,5.32-8.78c12.33-7.46,42.88,4.09,72.41,15.25L85.1,32c27.75-9.1,43.36-12.47,50.54-6.6,3.58,2.92,4.87,8.1,3.92,15.81a5.56,5.56,0,0,1-2.69,4.33A11.47,11.47,0,0,1,130.94,46.85ZM87,32.72c22.25,8.39,42.67,15.77,49.27,11.78a4.34,4.34,0,0,0,2.11-3.42c.89-7.26-.25-12.06-3.48-14.7C127.67,20.51,109.86,25.21,87,32.72ZM6.79,25c-.8,6.56.78,11.49,4.67,14.68,9.61,7.85,33.55,5.7,69.24-6.21l2.52-.84-.37-.14C55,22,23.34,10,11.52,17.14,8.79,18.8,7.24,21.37,6.79,25Z"/><path class="cls-1" d="M22.87,62.5a18.29,18.29,0,0,1-5.93-.91C11.75,59.8,8.3,55.41,6.68,48.54a11.26,11.26,0,0,1,2-10.08c9-11.27,41.65-11,73.22-10.72l1.94,0C106.69,9.63,120.17,1.07,128.94,4.09c4.37,1.51,7.36,5.92,9.15,13.49a5.57,5.57,0,0,1-1,5C131.76,29.2,109.9,29.22,84.22,29L81,31.62C62.67,46.25,38.79,62.5,22.87,62.5Zm-15-14.25c1.52,6.43,4.7,10.52,9.46,12.16,11.72,4,33.45-6.25,62.82-29.76.7-.56,1.39-1.12,2.08-1.66h-.4C52,28.73,18.23,28.44,9.61,39.23c-2,2.5-2.56,5.45-1.72,9ZM85.77,27.77c23.79.19,45.49.06,50.31-6a4.36,4.36,0,0,0,.79-3.94c-1.67-7.11-4.4-11.23-8.34-12.59C119.76,2.24,104.67,12.82,85.77,27.77Z"/><path class="cls-1" d="M23,56.47a20.53,20.53,0,0,1-9-1.82C9,52.24,6.13,47.47,5.35,40.45h0a11.25,11.25,0,0,1,3.17-9.76c10.29-10.09,42.67-5.86,74-1.77l1.92.25c24.91-15.23,39.34-22.09,47.67-18,4.16,2,6.59,6.76,7.45,14.49a5.6,5.6,0,0,1-1.63,4.83c-6.06,5.94-27.76,3.31-53.22,0l-3.57,2.19C62.52,44.16,38.89,56.47,23,56.47ZM6.59,40.32c.72,6.56,3.39,11,7.91,13.21,11.15,5.44,34-2.15,66-21.93l2.26-1.4-.39-.05c-29.58-3.86-63.09-8.24-72.95,1.42-2.29,2.24-3.2,5.1-2.8,8.75Zm79.79-10.9C110,32.49,131.53,35,137,29.58a4.33,4.33,0,0,0,1.26-3.8c-.8-7.27-3-11.69-6.76-13.52C123.21,8.2,106.94,16.87,86.38,29.42Z"/><path class="cls-1" d="M24.72,51.1c-5,0-9.4-.9-12.72-3C7.35,45.17,5,40.1,5,33a11.27,11.27,0,0,1,4.22-9.36C20.55,14.78,52.27,22.54,83,30l1.88.46c26.43-12.4,41.52-17.63,49.36-12.68C138.1,20.29,140,25.27,140,33a5.58,5.58,0,0,1-2.15,4.63c-6.67,5.24-28,.24-52.9-5.86l-3.78,1.8C63,42.25,40.51,51.1,24.72,51.1ZM25.48,21C18.74,21,13.32,22,10,24.66c-2.52,2-3.75,4.72-3.75,8.38,0,6.61,2.16,11.32,6.42,14,10.49,6.62,34,1.59,68-14.57L83,31.34l-.38-.09C62.59,26.34,40.67,21,25.48,21ZM86.75,31c23.1,5.63,44.26,10.49,50.33,5.72A4.34,4.34,0,0,0,138.76,33c0-7.31-1.72-11.94-5.24-14.17C125.68,13.92,108.57,20.75,86.75,31Z"/></svg>