<svg id="Capa_1" data-name="Capa 1" xmlns="http://www.w3.org/2000/svg" viewBox="0 0 98 66"><defs><style>.cls-1{fill:#fc5e29;}</style></defs><title>publicaciones</title><path class="cls-1" d="M41.42,34.74a23.73,23.73,0,0,1-8-2q-10.8-4.2-21.63-8.34a7,7,0,0,1-2.42-11.9A6.27,6.27,0,0,1,12.63,11C20.3,9.55,28,8.1,35.63,6.61,42.92,5.2,50.21,3.74,57.5,2.34a3.34,3.34,0,0,1,1.66.14q12.07,4.41,24.11,8.87c1,.37,1.23.79,1.14,2.12-.07.86-.4,1.19-1.39,1.41L61,19.82C54.83,21.22,48.61,22.6,42.41,24a6.22,6.22,0,0,1-3.72-.41L21.15,16.85l-5.67-2.19A3.52,3.52,0,1,0,13,21.21l23.21,9a13.87,13.87,0,0,0,8.41.59c12.58-2.91,25.18-5.7,37.78-8.53,1.16-.26,1.81,0,2,.88.31,1.45-.09,2.21-1.32,2.48Q63.32,30,43.58,34.46C42.88,34.61,42.14,34.65,41.42,34.74Z"/><path class="cls-1" d="M90.7,41.09c.67,1.47.21,2.51-1.26,2.84L78.94,46.3c-2.7.61-5.41,1.23-8.12,1.82-2.1.46-4.21.86-6.31,1.33C59.35,50.63,54.19,51.81,49.05,53a5.69,5.69,0,0,1-3.42-.25c-4.34-1.65-8.67-3.33-13-5-3.67-1.42-7.34-2.85-11-4.24a3.24,3.24,0,0,0-3.54.75A3.16,3.16,0,0,0,17,47.59a3.69,3.69,0,0,0,2.27,2.55C26,52.72,32.67,55.34,39.4,57.9c2.09.79,4.22,1.5,6.37,2.12a9.08,9.08,0,0,0,4.57-.09c8-1.83,16-3.61,24-5.41l14.65-3.28c1.12-.26,1.77,0,2,.93.3,1.35-.13,2.18-1.29,2.44l-17.87,4c-7.11,1.6-14.23,3.18-21.34,4.79a14.63,14.63,0,0,1-8.58-.91Q30,58,18.23,53.42a6.67,6.67,0,0,1-4.57-7.51,6.15,6.15,0,0,1,4-5.39,2,2,0,0,1,1.29,0c3.34,1.25,6.67,2.55,10,3.83,4.13,1.59,8.24,3.23,12.38,4.76a17.28,17.28,0,0,0,10.5.75c3.79-1,7.63-1.76,11.45-2.61C66.16,46.6,69.09,46,72,45.35c6-1.36,12.06-2.76,18.08-4.14Z"/><path class="cls-1" d="M18.34,28.88a3.64,3.64,0,0,0-1.18,4A3.33,3.33,0,0,0,19.22,35q12,4.65,24.05,9.26a13.71,13.71,0,0,0,8.27.3c12.28-2.86,24.59-5.58,36.9-8.36l.39-.07c.65-.17,1.43-.35,1.76.33a4.19,4.19,0,0,1,.23,2.09c-.06.64-.7.81-1.28.94L74.92,42.78l-9.08,2L50.37,48.31a13.81,13.81,0,0,1-8-.73Q30.08,43,17.83,38.13a6.89,6.89,0,0,1-3.33-10c.29-.48.55-.62,1.09-.37C16.45,28.19,17.34,28.49,18.34,28.88Z"/><path class="cls-1" d="M86.2,24.7c1.32.22,2.52.4,3.71.63a1.26,1.26,0,0,1,1,1.36c.07,1.26-.17,1.79-1,2-1.73.43-3.47.8-5.21,1.19q-17.82,4-35.65,8a5.38,5.38,0,0,1-3-.13,24.59,24.59,0,0,1-3.18-1.32l3.39-.78,32.89-7.4c1.26-.28,2.52-.62,3.79-.83C84.57,27.18,85.82,26.47,86.2,24.7Z"/></svg>