<svg id="Capa_1" data-name="Capa 1" xmlns="http://www.w3.org/2000/svg" viewBox="0 0 110 110"><defs><style>.cls-1{fill:#fc5e29;}</style></defs><title>sobreMi</title><path class="cls-1" d="M55,107.66C31.18,107.66,10.08,92,3.56,69.41A52.44,52.44,0,0,1,31.86,7.53,54.57,54.57,0,0,1,55.49,2.34a53.49,53.49,0,0,1,51.14,38.94,52.29,52.29,0,0,1-24.11,58.83A54,54,0,0,1,55,107.66ZM55,4.44c-2,.16-3.93.27-5.89.48a50.31,50.31,0,0,0-24.58,9.55A50,50,0,0,0,5.08,66.39a51.49,51.49,0,0,0,75.31,32.4c20-11.22,30-34.33,24.29-56.09A51.41,51.41,0,0,0,55,4.44Z"/><path class="cls-1" d="M23.88,78.17a25.12,25.12,0,0,1,7.72-5q4.83-1.91,9.73-3.58A1.81,1.81,0,0,0,42.82,68a14.21,14.21,0,0,1,.32-1.52c1,.85,1.89,1.74,2.91,2.45,1.88,1.3,3.79,2.56,5.77,3.69a3.54,3.54,0,0,1,2,2.35,2.11,2.11,0,0,0,.63,1c.22-.77.39-1.54.66-2.28a1.65,1.65,0,0,1,.7-.9c3.72-1.64,7.19-3.61,9.51-7.09.13.08.22.11.22.15.35,1.93,1.66,2.59,3.45,3.09A57.19,57.19,0,0,1,82.8,74.73c1.13.67,2.18,1.46,3.45,2.32a52.49,52.49,0,0,1-23.36,9C46.51,88.23,32.81,84.05,23.88,78.17Z"/><path class="cls-1" d="M67,50.38,66.94,49c-2.38,1.74-5,1.41-7.54,1a3.92,3.92,0,0,1-3.22-2.62,5.94,5.94,0,0,0-.87-1.53c-.71-.89-1.48-.83-2.07.15-.32.53-.56,1.11-.84,1.66a4.38,4.38,0,0,1-4.18,2.56c-2,0-4.12.37-6.08-1.26l.16,1.21a2.38,2.38,0,0,1-2.39-1.83C39.28,44.58,38.54,40.78,38,37c-.47-3.44-.4-6.86,1.64-9.91s5.07-4.37,8.53-5c.75-.13,1.51-.22,2.25-.41a7.22,7.22,0,0,0,1.27-.58L51,19.92a41,41,0,0,1,8.89,1.48,31.86,31.86,0,0,1,4.77,1.71c5.19,2.42,6.86,5.87,5.73,11.44-.39,1.93-.78,3.87-1,5.81a24.6,24.6,0,0,0,0,3c0,.68-.13,1.35-.2,2A5.36,5.36,0,0,0,69,46.88c.27,1.33-.53,2.21-1.18,3.15C67.72,50.2,67.39,50.23,67,50.38ZM41,42.25c.34,0,.51,0,.67-.08a17.47,17.47,0,0,1,11.08.76,4.74,4.74,0,0,0,3.73-.07,19.61,19.61,0,0,1,9.4-.87c.63.08,1.25.2,1.93.3a20.22,20.22,0,0,0,0-2.71A3.34,3.34,0,0,0,66,36.8c-.58-.27-.66-.62-.73-1.18-.57-4.62-2.83-6.54-6.36-7a33.65,33.65,0,0,0-8.27,0c-4.77.56-6.54,2.09-7.66,6.75a9.24,9.24,0,0,1-.21.91,7.24,7.24,0,0,1-.66,1.44A7.16,7.16,0,0,0,41,42.25Zm.56,3.38a4.13,4.13,0,0,0,1.63,3.29,6,6,0,0,0,9-2.68c.68-1.94.06-3.22-2-3.41a36.86,36.86,0,0,0-6.39,0C41.78,42.94,41.56,43.35,41.55,45.63Zm21.12-3.32c-1.26.16-2.53.31-3.79.49a7.06,7.06,0,0,0-1.19.35,1.59,1.59,0,0,0-1.2,1.71,4.71,4.71,0,0,0,4.08,4.64,14,14,0,0,0,2.89,0,4.22,4.22,0,0,0,4-4.94,1.84,1.84,0,0,0-1.56-1.82C64.83,42.56,63.76,42.46,62.67,42.31Z"/></svg>